#N canvas 1325 186 786 711 10;
#X obj 127 194 inlet~;
#X obj 273 168 inlet;
#X obj 287 559 outlet~;
#X floatatom 290 244 5 0 0 0 - - -;
#X obj 130 116 hradio 12 1 1 8 empty empty 1/16 -25 6 0 8 -262144 -1
-1 2;
#X obj 289 263 pow -1;
#X obj 355 257 + 1;
#X obj 289 286 / 4;
#X obj 302 309 *;
#X obj 313 337 * 60000;
#X obj 115 283 +~;
#X obj 156 256 *~;
#X obj 129 135 hsl 96 8 0 0.95 0 1 empty empty fb -16 5 0 8 -262144
-1 -1 1600 1;
#X text 316 167 <- bpm in;
#X obj 281 109 loadbang;
#X floatatom 356 228 5 0 0 0 - - -;
#X obj 225 196 t b b;
#X obj 129 148 hsl 96 8 0 1 0 1 empty empty d/w -22 5 0 8 -262144 -1
-1 1300 1;
#X obj 285 525 +~;
#X obj 307 495 *~;
#X obj 235 493 *~;
#X obj 100 398 * -1;
#X obj 104 429 + 1;
#X text 401 105 beatsynced delay with feedback;
#X text 104 371 <- unique name for delayline! ->;
#X obj -30 367 delwrite~ \$1bdl1 2000;
#X obj 331 376 vd~ \$1bdl1;
#X connect 0 0 10 0;
#X connect 0 0 20 1;
#X connect 1 0 3 0;
#X connect 3 0 5 0;
#X connect 4 0 15 0;
#X connect 4 0 16 0;
#X connect 5 0 7 0;
#X connect 6 0 8 1;
#X connect 7 0 8 0;
#X connect 8 0 9 0;
#X connect 9 0 26 0;
#X connect 10 0 25 0;
#X connect 11 0 10 1;
#X connect 12 0 11 1;
#X connect 14 0 16 0;
#X connect 15 0 6 0;
#X connect 16 0 3 0;
#X connect 16 1 15 0;
#X connect 17 0 19 0;
#X connect 17 0 21 0;
#X connect 18 0 2 0;
#X connect 19 0 18 1;
#X connect 20 0 18 0;
#X connect 21 0 22 0;
#X connect 22 0 20 0;
#X connect 26 0 11 0;
#X connect 26 0 19 1;
#X coords 0 -1 1 1 130 60 1 100 100;
