#N canvas 770 189 1529 852 10;
#X obj -132 339 inlet~;
#X obj 373 212 inlet;
#X floatatom 384 299 5 0 0 0 - - -;
#X obj 182 120 hradio 15 1 1 8 empty empty empty 125 5 1 8 -262144
-1 -1 2;
#X obj 383 318 pow -1;
#X obj 449 312 + 1;
#X obj 383 341 / 4;
#X obj 396 364 *;
#X obj 407 392 * 60000;
#X obj 232 407 +~;
#X obj 258 369 *~;
#X obj 186 141 hsl 96 8 0 0.95 0 1 empty empty fb 105 5 1 8 -262144
-1 -1 3200 1;
#X text 414 213 <- bpm in;
#X obj 394 93 loadbang;
#X floatatom 450 283 5 0 0 0 - - -;
#X obj 319 250 t b b;
#X obj 536 1032 outlet~;
#X floatatom 344 606 5 0 0 0 - - -;
#X obj 183 173 hradio 15 1 1 8 empty empty empty 125 5 1 8 -262144
-1 -1 3;
#X obj 343 625 pow -1;
#X obj 409 619 + 1;
#X obj 343 648 / 4;
#X obj 356 671 *;
#X obj 367 699 * 60000;
#X obj 190 638 +~;
#X obj 210 618 *~;
#X obj 187 194 hsl 96 8 0 0.95 0 1 empty empty fb 105 5 1 8 -262144
-1 -1 3100 1;
#X floatatom 410 590 5 0 0 0 - - -;
#X obj 299 569 t b b;
#X obj 170 120 vsl 8 100 20 120 0 1 empty empty cut 0 110 1 8 -233017
-1 -1 3800 1;
#X obj 114 292 mtof;
#X obj -66 253 osc~;
#X obj 146 120 vsl 8 100 0.01 1 1 1 empty empty fr 0 110 1 8 -262144
-1 -1 2800 1;
#X obj 156 120 vsl 8 100 0 30 0 1 empty empty a 0 110 1 8 -262144 -1
-1 4900 1;
#X obj 22 54 metro 5;
#X obj -61 288 snapshot~;
#X obj -51 320 *;
#X obj 559 857 +~;
#X obj 187 155 hsl 96 8 0 1 0 1 empty empty d/w 105 5 1 8 -262144 -1
-1 5200 1;
#X obj 511 518 *~;
#X obj 466 459 * -1;
#X obj 467 492 + 1;
#X obj 526 548 +~;
#X obj 560 522 *~;
#X obj 187 208 hsl 96 8 0 1 0 1 empty empty d/w 105 5 1 8 -262144 -1
-1 5100 1;
#X obj 379 781 *~;
#X obj 334 722 * -1;
#X obj 335 755 + 1;
#X obj 394 811 +~;
#X obj 416 788 *~;
#X obj 129 120 vsl 8 100 0.7 10 0 1 empty empty rs 0 110 1 8 -233017
-1 -1 2900 1;
#X obj 94 272 +;
#X obj 105 120 vsl 8 100 0.01 1 1 1 empty empty fr 0 110 1 8 -262144
-1 -1 1800 1;
#X obj 117 120 vsl 8 100 0 3 0 1 empty empty a 0 110 0 8 -262144 -1
-1 2600 1;
#X obj -48 75 osc~;
#X obj -48 114 snapshot~;
#X obj -47 139 *;
#X obj 142 262 +;
#X obj 540 999 +~;
#X obj 562 969 *~;
#X obj 490 967 *~;
#X obj 471 870 * -1;
#X obj 475 901 + 1;
#X obj 309 120 vsl 8 96 0 1 0 1 empty empty d/w 0 110 1 8 -262144 -1
-1 2400 1;
#X text -83 702 unique delaybuffer name2 l/r! ->;
#X text 476 737 <-unique delaybuffer name2 l/r!;
#X text 521 422 <-unique delaybuffer name l/r!;
#X text 14 445 unique delaybuffer name l/r! ->;
#X obj -40 376 inlet~;
#X obj 801 511 +~;
#X obj 827 473 *~;
#X obj 729 1110 outlet~;
#X obj 759 719 +~;
#X obj 795 694 *~;
#X obj 872 902 +~;
#X obj 1107 674 *~;
#X obj 1122 704 +~;
#X obj 1144 681 *~;
#X obj 948 870 *~;
#X obj 963 900 +~;
#X obj 985 877 *~;
#X obj 853 1044 +~;
#X obj 875 1014 *~;
#X obj 803 1012 *~;
#X text 404 153 1 beatsynced delay for high - and one for low frequencies
\, in stereo;
#X obj 517 48 inlet;
#X text 571 49 <- sync-in;
#N canvas 497 136 1076 837 fexprlopass4 0;
#X obj -43 392 inlet~;
#X obj -4 634 outlet~;
#X obj 73 85 inlet~;
#X obj 345 55 inlet;
#X obj -1 581 fexpr~ $x2[0]*$x1[0] + $x3[0]*$x1[-1] + $x4[0]*$x1[-2]
- $x5[0]*$y1[-1] - $x6[0]*$y1[-2];
#X obj 87 200 sig~ 1;
#X obj 121 249 /~;
#X obj 245 49 samplerate~;
#X text 13 559 biquad \, a1 \, 2 \, 3 b1 \, 2 = x2[0] \, x3[0] \, x4[0]
\, x5[0] \, x6[0];
#X obj 296 199 * 1.41421;
#X obj 110 376 sig~ 1;
#X obj 147 408 /~;
#X obj 214 340 +~;
#X obj 187 310 sig~ 1;
#X obj 251 318 *~;
#X obj 181 375 +~;
#X obj 112 295 *~;
#X obj 145 507 *~ 2;
#X text 125 505 a2;
#X text 41 356 a1/a3;
#X obj 222 407 sig~ 1;
#X obj 296 433 -~;
#X obj 299 457 *~ 2;
#X obj 297 518 *~;
#X obj 409 334 *~;
#X text 276 435 b1;
#X text 384 379 b2;
#X obj 361 397 sig~ 1;
#X obj 392 429 -~;
#X obj 377 512 *~;
#X text 99 246 c;
#X obj 397 462 +~;
#X obj 147 222 expr~ tan($v1);
#X obj 151 194 /~ 44100;
#X obj 129 153 *~ 3.14159;
#X obj 333 138 -;
#X msg 332 107 1;
#X obj 345 86 t b f;
#X text 400 56 resonance 0..1;
#X text 124 86 cutoff (hz);
#X text 560 187 a2= 2*a1 \, a3=a1;
#X text 559 119 cookbook-like 4 pole lp;
#X text 560 151 c= 1/tan(pi*cutf/samplerate);
#X text 562 169 a1= 1/(1+res*c+c*c);
#X text 561 205 b1= 2*(1-c*c)*a1;
#X text 561 221 b2= (1-res*c+c*c)*a1;
#X connect 0 0 4 0;
#X connect 2 0 34 0;
#X connect 3 0 37 0;
#X connect 4 0 1 0;
#X connect 5 0 6 0;
#X connect 6 0 14 0;
#X connect 6 0 16 0;
#X connect 6 0 16 1;
#X connect 6 0 24 0;
#X connect 7 0 33 1;
#X connect 9 0 14 1;
#X connect 9 0 24 1;
#X connect 10 0 11 0;
#X connect 11 0 4 1;
#X connect 11 0 17 0;
#X connect 11 0 4 3;
#X connect 11 0 23 1;
#X connect 11 0 29 0;
#X connect 12 0 15 1;
#X connect 13 0 12 0;
#X connect 14 0 12 1;
#X connect 15 0 11 1;
#X connect 16 0 15 0;
#X connect 16 0 21 1;
#X connect 16 0 31 1;
#X connect 17 0 4 2;
#X connect 20 0 21 0;
#X connect 21 0 22 0;
#X connect 22 0 23 0;
#X connect 23 0 4 4;
#X connect 24 0 28 1;
#X connect 27 0 28 0;
#X connect 28 0 31 0;
#X connect 29 0 4 5;
#X connect 31 0 29 1;
#X connect 32 0 6 1;
#X connect 33 0 32 0;
#X connect 34 0 33 0;
#X connect 35 0 9 0;
#X connect 36 0 35 0;
#X connect 37 0 36 0;
#X connect 37 1 35 1;
#X restore 108 546 pd fexprlopass4;
#N canvas 497 136 1076 837 fexprhipass4 0;
#X obj -43 392 inlet~;
#X obj -4 634 outlet~;
#X obj 105 93 inlet~;
#X obj 346 95 inlet;
#X obj -1 581 fexpr~ $x2[0]*$x1[0] + $x3[0]*$x1[-1] + $x4[0]*$x1[-2]
- $x5[0]*$y1[-1] - $x6[0]*$y1[-2];
#X text 13 559 biquad \, a1 \, 2 \, 3 b1 \, 2 = x2[0] \, x3[0] \, x4[0]
\, x5[0] \, x6[0];
#X text 401 96 resonance 0..1;
#X text 156 94 cutoff (hz);
#X text 573 99 cookbook-like 4 pole hp;
#X text 572 141 c= tan(pi*cutf/samplerate);
#X obj 245 49 samplerate~;
#X obj 140 186 expr~ tan($v1);
#X obj 135 159 /~ 44100;
#X obj 108 128 *~ 3.14159;
#X text 91 160 c;
#X obj 143 285 sig~ 1;
#X obj 174 398 /~;
#X obj 210 362 +~;
#X obj 343 246 * 1.41421;
#X obj 357 216 -;
#X msg 356 185 1;
#X obj 369 164 t b f;
#X obj 226 333 +~;
#X obj 270 268 *~;
#X obj 266 314 *~;
#X text 573 165 a1= 1/(1+res+c+c*c);
#X text 573 186 a2= -2*a1;
#X obj 157 484 *~ -2;
#X text 99 483 a2;
#X text 123 337 a1/a3;
#X text 574 205 b1= 2*(c*c-1)*a1;
#X obj 287 439 -~;
#X obj 310 417 sig~ 1;
#X text 256 428 b1;
#X obj 280 485 *~ 2;
#X obj 261 515 *~;
#X obj 417 339 *~;
#X text 384 379 b2;
#X obj 361 397 sig~ 1;
#X obj 392 429 -~;
#X obj 377 512 *~;
#X obj 394 472 +~;
#X text 561 221 b2= (1-res*c+c*c)*a1;
#X connect 0 0 4 0;
#X connect 2 0 13 0;
#X connect 3 0 21 0;
#X connect 4 0 1 0;
#X connect 10 0 12 1;
#X connect 11 0 23 0;
#X connect 11 0 24 0;
#X connect 11 0 24 1;
#X connect 11 0 36 0;
#X connect 12 0 11 0;
#X connect 13 0 12 0;
#X connect 15 0 16 0;
#X connect 15 0 17 0;
#X connect 16 0 4 1;
#X connect 16 0 27 0;
#X connect 16 0 4 3;
#X connect 16 0 35 0;
#X connect 16 0 40 0;
#X connect 17 0 16 1;
#X connect 18 0 23 1;
#X connect 18 0 36 1;
#X connect 19 0 18 0;
#X connect 20 0 19 0;
#X connect 21 0 20 0;
#X connect 21 1 19 1;
#X connect 22 0 17 1;
#X connect 23 0 22 0;
#X connect 24 0 22 1;
#X connect 24 0 31 0;
#X connect 24 0 41 1;
#X connect 27 0 4 2;
#X connect 31 0 34 0;
#X connect 32 0 31 1;
#X connect 34 0 35 1;
#X connect 35 0 4 4;
#X connect 36 0 39 1;
#X connect 38 0 39 0;
#X connect 39 0 41 0;
#X connect 40 0 4 5;
#X connect 41 0 40 1;
#X restore 83 370 pd fexprhipass4;
#X obj 163 292 clip 0 10;
#X obj 163 315 / 10;
#N canvas 497 136 1076 837 fexprlopass4 0;
#X obj -43 392 inlet~;
#X obj -4 634 outlet~;
#X obj 73 85 inlet~;
#X obj 345 55 inlet;
#X obj -1 581 fexpr~ $x2[0]*$x1[0] + $x3[0]*$x1[-1] + $x4[0]*$x1[-2]
- $x5[0]*$y1[-1] - $x6[0]*$y1[-2];
#X obj 87 200 sig~ 1;
#X obj 121 249 /~;
#X obj 245 49 samplerate~;
#X text 13 559 biquad \, a1 \, 2 \, 3 b1 \, 2 = x2[0] \, x3[0] \, x4[0]
\, x5[0] \, x6[0];
#X obj 296 199 * 1.41421;
#X obj 110 376 sig~ 1;
#X obj 147 408 /~;
#X obj 214 340 +~;
#X obj 187 310 sig~ 1;
#X obj 251 318 *~;
#X obj 181 375 +~;
#X obj 112 295 *~;
#X obj 145 507 *~ 2;
#X text 125 505 a2;
#X text 41 356 a1/a3;
#X obj 222 407 sig~ 1;
#X obj 296 433 -~;
#X obj 299 457 *~ 2;
#X obj 297 518 *~;
#X obj 409 334 *~;
#X text 276 435 b1;
#X text 384 379 b2;
#X obj 361 397 sig~ 1;
#X obj 392 429 -~;
#X obj 377 512 *~;
#X text 99 246 c;
#X obj 397 462 +~;
#X obj 147 222 expr~ tan($v1);
#X obj 151 194 /~ 44100;
#X obj 129 153 *~ 3.14159;
#X obj 333 138 -;
#X msg 332 107 1;
#X obj 345 86 t b f;
#X text 400 56 resonance 0..1;
#X text 124 86 cutoff (hz);
#X text 560 187 a2= 2*a1 \, a3=a1;
#X text 559 119 cookbook-like 4 pole lp;
#X text 560 151 c= 1/tan(pi*cutf/samplerate);
#X text 562 169 a1= 1/(1+res*c+c*c);
#X text 561 205 b1= 2*(1-c*c)*a1;
#X text 561 221 b2= (1-res*c+c*c)*a1;
#X connect 0 0 4 0;
#X connect 2 0 34 0;
#X connect 3 0 37 0;
#X connect 4 0 1 0;
#X connect 5 0 6 0;
#X connect 6 0 14 0;
#X connect 6 0 16 0;
#X connect 6 0 16 1;
#X connect 6 0 24 0;
#X connect 7 0 33 1;
#X connect 9 0 14 1;
#X connect 9 0 24 1;
#X connect 10 0 11 0;
#X connect 11 0 4 1;
#X connect 11 0 17 0;
#X connect 11 0 4 3;
#X connect 11 0 23 1;
#X connect 11 0 29 0;
#X connect 12 0 15 1;
#X connect 13 0 12 0;
#X connect 14 0 12 1;
#X connect 15 0 11 1;
#X connect 16 0 15 0;
#X connect 16 0 21 1;
#X connect 16 0 31 1;
#X connect 17 0 4 2;
#X connect 20 0 21 0;
#X connect 21 0 22 0;
#X connect 22 0 23 0;
#X connect 23 0 4 4;
#X connect 24 0 28 1;
#X connect 27 0 28 0;
#X connect 28 0 31 0;
#X connect 29 0 4 5;
#X connect 31 0 29 1;
#X connect 32 0 6 1;
#X connect 33 0 32 0;
#X connect 34 0 33 0;
#X connect 35 0 9 0;
#X connect 36 0 35 0;
#X connect 37 0 36 0;
#X connect 37 1 35 1;
#X restore 682 647 pd fexprlopass4;
#N canvas 497 136 1076 837 fexprhipass4 0;
#X obj -43 392 inlet~;
#X obj -4 634 outlet~;
#X obj 105 93 inlet~;
#X obj 346 95 inlet;
#X obj -1 581 fexpr~ $x2[0]*$x1[0] + $x3[0]*$x1[-1] + $x4[0]*$x1[-2]
- $x5[0]*$y1[-1] - $x6[0]*$y1[-2];
#X text 13 559 biquad \, a1 \, 2 \, 3 b1 \, 2 = x2[0] \, x3[0] \, x4[0]
\, x5[0] \, x6[0];
#X text 401 96 resonance 0..1;
#X text 156 94 cutoff (hz);
#X text 573 99 cookbook-like 4 pole hp;
#X text 572 141 c= tan(pi*cutf/samplerate);
#X obj 245 49 samplerate~;
#X obj 140 186 expr~ tan($v1);
#X obj 135 159 /~ 44100;
#X obj 108 128 *~ 3.14159;
#X text 91 160 c;
#X obj 143 285 sig~ 1;
#X obj 174 398 /~;
#X obj 210 362 +~;
#X obj 343 246 * 1.41421;
#X obj 357 216 -;
#X msg 356 185 1;
#X obj 369 164 t b f;
#X obj 226 333 +~;
#X obj 270 268 *~;
#X obj 266 314 *~;
#X text 573 165 a1= 1/(1+res+c+c*c);
#X text 573 186 a2= -2*a1;
#X obj 157 484 *~ -2;
#X text 99 483 a2;
#X text 123 337 a1/a3;
#X text 574 205 b1= 2*(c*c-1)*a1;
#X obj 287 439 -~;
#X obj 310 417 sig~ 1;
#X text 256 428 b1;
#X obj 280 485 *~ 2;
#X obj 261 515 *~;
#X obj 417 339 *~;
#X text 384 379 b2;
#X obj 361 397 sig~ 1;
#X obj 392 429 -~;
#X obj 377 512 *~;
#X obj 394 472 +~;
#X text 561 221 b2= (1-res*c+c*c)*a1;
#X connect 0 0 4 0;
#X connect 2 0 13 0;
#X connect 3 0 21 0;
#X connect 4 0 1 0;
#X connect 10 0 12 1;
#X connect 11 0 23 0;
#X connect 11 0 24 0;
#X connect 11 0 24 1;
#X connect 11 0 36 0;
#X connect 12 0 11 0;
#X connect 13 0 12 0;
#X connect 15 0 16 0;
#X connect 15 0 17 0;
#X connect 16 0 4 1;
#X connect 16 0 27 0;
#X connect 16 0 4 3;
#X connect 16 0 35 0;
#X connect 16 0 40 0;
#X connect 17 0 16 1;
#X connect 18 0 23 1;
#X connect 18 0 36 1;
#X connect 19 0 18 0;
#X connect 20 0 19 0;
#X connect 21 0 20 0;
#X connect 21 1 19 1;
#X connect 22 0 17 1;
#X connect 23 0 22 0;
#X connect 24 0 22 1;
#X connect 24 0 31 0;
#X connect 24 0 41 1;
#X connect 27 0 4 2;
#X connect 31 0 34 0;
#X connect 32 0 31 1;
#X connect 34 0 35 1;
#X connect 35 0 4 4;
#X connect 36 0 39 1;
#X connect 38 0 39 0;
#X connect 39 0 41 0;
#X connect 40 0 4 5;
#X connect 41 0 40 1;
#X restore 684 460 pd fexprhipass4;
#X obj 243 448 delwrite~ \$1ddl-hl 2000;
#X obj 430 425 vd~ \$1ddl-hl;
#X obj 812 550 delwrite~ \$1ddl-hr 2000;
#X obj 990 535 vd~ \$1ddl-hr;
#X obj 149 700 delwrite~ \$1ddl-ll 2000;
#X obj 386 736 vd~ \$1ddl-ll;
#X obj 734 776 delwrite~ \$1ddl-lr 2000;
#X obj 966 808 vd~ \$1ddl-lr;
#X connect 0 0 60 1;
#X connect 0 0 88 0;
#X connect 0 0 87 0;
#X connect 1 0 2 0;
#X connect 1 0 17 0;
#X connect 2 0 4 0;
#X connect 3 0 14 0;
#X connect 3 0 15 0;
#X connect 4 0 6 0;
#X connect 5 0 7 1;
#X connect 6 0 7 0;
#X connect 7 0 8 0;
#X connect 8 0 94 0;
#X connect 8 0 96 0;
#X connect 9 0 39 1;
#X connect 9 0 93 0;
#X connect 10 0 9 1;
#X connect 11 0 10 1;
#X connect 11 0 70 1;
#X connect 13 0 15 0;
#X connect 13 0 28 0;
#X connect 13 0 34 0;
#X connect 14 0 5 0;
#X connect 15 0 2 0;
#X connect 15 1 14 0;
#X connect 17 0 19 0;
#X connect 18 0 27 0;
#X connect 18 0 28 0;
#X connect 19 0 21 0;
#X connect 20 0 22 1;
#X connect 21 0 22 0;
#X connect 22 0 23 0;
#X connect 23 0 98 0;
#X connect 23 0 100 0;
#X connect 24 0 45 1;
#X connect 24 0 97 0;
#X connect 25 0 24 1;
#X connect 26 0 25 1;
#X connect 26 0 73 1;
#X connect 27 0 20 0;
#X connect 28 0 17 0;
#X connect 28 1 27 0;
#X connect 29 0 51 1;
#X connect 30 0 88 1;
#X connect 30 0 87 1;
#X connect 30 0 91 1;
#X connect 30 0 92 1;
#X connect 31 0 35 0;
#X connect 32 0 31 0;
#X connect 33 0 36 1;
#X connect 34 0 35 0;
#X connect 34 0 55 0;
#X connect 35 0 36 0;
#X connect 36 0 51 0;
#X connect 37 0 59 1;
#X connect 38 0 40 0;
#X connect 38 0 43 1;
#X connect 38 0 77 1;
#X connect 39 0 42 0;
#X connect 40 0 41 0;
#X connect 41 0 39 0;
#X connect 41 0 75 0;
#X connect 42 0 37 1;
#X connect 43 0 42 1;
#X connect 44 0 46 0;
#X connect 44 0 49 1;
#X connect 44 0 80 1;
#X connect 45 0 48 0;
#X connect 46 0 47 0;
#X connect 47 0 45 0;
#X connect 47 0 78 0;
#X connect 48 0 37 0;
#X connect 49 0 48 1;
#X connect 50 0 57 1;
#X connect 51 0 30 0;
#X connect 52 0 54 0;
#X connect 53 0 56 1;
#X connect 54 0 55 0;
#X connect 55 0 56 0;
#X connect 56 0 57 0;
#X connect 57 0 89 0;
#X connect 58 0 16 0;
#X connect 59 0 58 1;
#X connect 60 0 58 0;
#X connect 61 0 62 0;
#X connect 62 0 60 0;
#X connect 62 0 83 0;
#X connect 63 0 61 0;
#X connect 63 0 59 0;
#X connect 63 0 82 0;
#X connect 68 0 83 1;
#X connect 68 0 91 0;
#X connect 68 0 92 0;
#X connect 69 0 75 1;
#X connect 69 0 95 0;
#X connect 70 0 69 1;
#X connect 72 0 78 1;
#X connect 72 0 99 0;
#X connect 73 0 72 1;
#X connect 74 0 82 1;
#X connect 75 0 76 0;
#X connect 76 0 74 1;
#X connect 77 0 76 1;
#X connect 78 0 79 0;
#X connect 79 0 74 0;
#X connect 80 0 79 1;
#X connect 81 0 71 0;
#X connect 82 0 81 1;
#X connect 83 0 81 0;
#X connect 85 0 54 1;
#X connect 85 0 31 1;
#X connect 87 0 24 0;
#X connect 88 0 9 0;
#X connect 89 0 90 0;
#X connect 90 0 88 2;
#X connect 90 0 87 2;
#X connect 90 0 92 2;
#X connect 90 0 91 2;
#X connect 91 0 72 0;
#X connect 92 0 69 0;
#X connect 94 0 10 0;
#X connect 94 0 43 0;
#X connect 96 0 70 0;
#X connect 96 0 77 0;
#X connect 98 0 25 0;
#X connect 98 0 49 0;
#X connect 100 0 73 0;
#X connect 100 0 80 0;
#X coords 0 -1 1 1 220 135 1 100 100;
