#N canvas 1159 217 1268 817 10;
#X obj 53 304 moses 0.001;
#X msg 76 424 0 118.592;
#X msg 50 372 set 0 \$1;
#X obj 0 67 clip 0 1;
#X obj 243 123 vsl 15 81 0.2 1 0 1 empty empty dc 2 4 0 8 -262144 -1
-1 1300 1;
#X obj 123 133 vradio 12 1 1 6 empty empty wav -2 -4 0 8 -262144 -1
-1 3;
#X obj 102 121 vradio 15 1 1 3 empty empty okt 0 52 0 8 -262144 -1
-1 1;
#X obj -35 199 - 1;
#X obj -36 222 * 12;
#X obj -70 241 +;
#X obj 192 123 vsl 15 81 0 120 0 1 empty empty cf 2 4 0 8 -262144 -1
-1 3700 1;
#X obj 134 479 *;
#X obj 209 123 vsl 15 81 0 1 0 1 empty empty rs 2 4 0 8 -262144 -1
-1 900 1;
#X obj 136 457 line 0 1;
#X obj 226 123 vsl 15 81 0 120 0 1 empty empty ev 2 4 0 8 -262144 -1
-1 4200 1;
#X obj 139 535 *;
#X obj 120 354 t b b;
#X obj 139 588 mtof;
#X obj -2 749 *~;
#X obj 139 560 +;
#X obj 34 489 line 0 1;
#X obj 30 726 lop~ 50;
#X msg 28 448 0 30;
#X obj 132 504 *;
#X obj -152 130 inlet;
#X text -113 132 pitch;
#X obj 0 43 inlet;
#X obj -3 780 outlet~;
#X obj 255 404 *;
#X obj 102 191 tgl 15 1 empty empty ep 0 -6 0 8 -262144 -1 -1 0 -2
;
#X obj 282 363 + 1;
#X obj 262 331 t b f;
#X obj 262 226 *;
#X obj 263 280 * 10000;
#X obj 263 252 *;
#X obj 144 12 inlet;
#X obj 285 34 inlet;
#X text 334 33 env-mod 0..1;
#X text 188 11 cutoff-mod 0..1;
#X text -338 36 2008 martin brinkmann;
#X obj 285 55 clip 0 1;
#X obj 285 77 * 60;
#X obj 145 37 clip 0 1;
#X obj 145 59 * 60;
#X msg 152 400 1;
#X obj 69 208 t f f;
#X msg 170 377 set \$1;
#N canvas 267 281 695 417 spt-osc1 0;
#N canvas 156 355 492 405 sawtooth1 0;
#X obj 69 328 outlet~;
#X obj 18 30 inlet;
#X obj 34 69 mtof;
#X obj 59 159 phasor~;
#X obj 70 292 -~ 0.5;
#X obj 227 28 inlet~;
#X obj 93 190 samphold~;
#X obj 72 242 -~;
#X obj 70 268 wrap~;
#X text 62 30 <-pitch;
#X text 279 27 <-sync;
#X obj -83 79 switch~;
#X obj -86 29 inlet;
#X text -46 29 <-on/off;
#X connect 1 0 2 0;
#X connect 2 0 3 0;
#X connect 3 0 6 0;
#X connect 3 0 7 0;
#X connect 4 0 0 0;
#X connect 5 0 6 1;
#X connect 6 0 7 1;
#X connect 7 0 8 0;
#X connect 8 0 4 0;
#X connect 12 0 11 0;
#X restore 54 171 pd sawtooth1;
#N canvas 159 368 623 456 pulse1 0;
#X obj 29 390 outlet~;
#X obj 18 30 inlet;
#X obj 34 69 mtof;
#X obj 59 159 phasor~;
#X obj 62 340 -~ 0.5;
#X obj 227 28 inlet~;
#X obj 93 190 samphold~;
#X obj 72 242 -~;
#X obj 70 268 wrap~;
#X text 62 30 <-pitch;
#X text 279 27 <-sync;
#X obj -86 68 switch~;
#X obj -86 29 inlet;
#X text -46 29 <-on/off;
#X obj 63 317 expr~ $v1>0.05;
#X connect 1 0 2 0;
#X connect 2 0 3 0;
#X connect 3 0 6 0;
#X connect 3 0 7 0;
#X connect 4 0 0 0;
#X connect 5 0 6 1;
#X connect 6 0 7 1;
#X connect 7 0 8 0;
#X connect 8 0 14 0;
#X connect 12 0 11 0;
#X connect 14 0 4 0;
#X restore 159 172 pd pulse1;
#N canvas 156 355 492 405 triangle1 0;
#X obj 73 460 outlet~;
#X obj 18 30 inlet;
#X obj 34 69 mtof;
#X obj 59 159 phasor~;
#X obj 74 424 -~ 0.5;
#X obj 227 28 inlet~;
#X obj 93 190 samphold~;
#X obj 72 242 -~;
#X obj 70 268 wrap~;
#X text 62 30 <-pitch;
#X text 279 27 <-sync;
#X obj 95 304 *~ -1;
#X obj 96 327 +~ 1;
#X obj 67 362 min~;
#X obj 72 391 *~ 2;
#X obj -83 79 switch~;
#X obj -86 29 inlet;
#X text -46 29 <-on/off;
#X connect 1 0 2 0;
#X connect 2 0 3 0;
#X connect 3 0 6 0;
#X connect 3 0 7 0;
#X connect 4 0 0 0;
#X connect 5 0 6 1;
#X connect 6 0 7 1;
#X connect 7 0 8 0;
#X connect 8 0 11 0;
#X connect 8 0 13 0;
#X connect 11 0 12 0;
#X connect 12 0 13 1;
#X connect 13 0 14 0;
#X connect 14 0 4 0;
#X connect 16 0 15 0;
#X restore 425 172 pd triangle1;
#X obj 273 28 inlet~;
#X text 130 21 <-pitch;
#X text 320 27 <-sync;
#X obj 89 21 inlet;
#X obj 479 22 inlet;
#X text 522 22 <-type 0 \, 1 \, 2;
#X obj 154 279 outlet~;
#X obj 20 138 == 0;
#X obj 124 137 == 1;
#X obj 384 75 int 0;
#X obj 483 46 loadbang;
#X obj 425 145 == 4;
#X obj 319 140 == 3;
#X obj 245 137 == 2;
#N canvas 157 360 623 456 pulse2 0;
#X obj 29 390 outlet~;
#X obj 18 30 inlet;
#X obj 34 69 mtof;
#X obj 59 159 phasor~;
#X obj 62 340 -~ 0.5;
#X obj 227 28 inlet~;
#X obj 93 190 samphold~;
#X obj 72 242 -~;
#X obj 70 268 wrap~;
#X text 62 30 <-pitch;
#X text 279 27 <-sync;
#X obj -86 68 switch~;
#X obj -86 29 inlet;
#X text -46 29 <-on/off;
#X obj 62 311 expr~ $v1>0.15;
#X connect 1 0 2 0;
#X connect 2 0 3 0;
#X connect 3 0 6 0;
#X connect 3 0 7 0;
#X connect 4 0 0 0;
#X connect 5 0 6 1;
#X connect 6 0 7 1;
#X connect 7 0 8 0;
#X connect 8 0 14 0;
#X connect 12 0 11 0;
#X connect 14 0 4 0;
#X restore 252 173 pd pulse2;
#N canvas 157 360 623 456 square 0;
#X obj 29 390 outlet~;
#X obj 18 30 inlet;
#X obj 34 69 mtof;
#X obj 59 159 phasor~;
#X obj 62 340 -~ 0.5;
#X obj 227 28 inlet~;
#X obj 93 190 samphold~;
#X obj 72 242 -~;
#X obj 70 268 wrap~;
#X text 62 30 <-pitch;
#X text 279 27 <-sync;
#X obj -86 68 switch~;
#X obj -86 29 inlet;
#X text -46 29 <-on/off;
#X obj 60 314 expr~ $v1>0.5;
#X connect 1 0 2 0;
#X connect 2 0 3 0;
#X connect 3 0 6 0;
#X connect 3 0 7 0;
#X connect 4 0 0 0;
#X connect 5 0 6 1;
#X connect 6 0 7 1;
#X connect 7 0 8 0;
#X connect 8 0 14 0;
#X connect 12 0 11 0;
#X connect 14 0 4 0;
#X restore 342 172 pd square;
#X obj 385 51 clip 0 5;
#X obj 521 145 == 5;
#N canvas 156 355 607 468 sine1 0;
#X obj 39 330 outlet~;
#X obj 18 30 inlet;
#X obj 34 69 mtof;
#X obj 227 28 inlet~;
#X text 62 30 <-pitch;
#X text 279 27 <-sync;
#X obj -83 79 switch~;
#X obj -86 29 inlet;
#X text -46 29 <-on/off;
#X obj 29 111 phasor~;
#X obj 63 142 samphold~;
#X obj 42 194 -~;
#X obj 40 220 wrap~;
#X obj 39 274 cos~;
#X obj 39 301 *~ 0.5;
#X obj 39 244 -~ 0.5;
#X connect 1 0 2 0;
#X connect 2 0 9 0;
#X connect 3 0 10 1;
#X connect 7 0 6 0;
#X connect 9 0 10 0;
#X connect 9 0 11 0;
#X connect 10 0 11 1;
#X connect 11 0 12 0;
#X connect 12 0 15 0;
#X connect 13 0 14 0;
#X connect 14 0 0 0;
#X connect 15 0 13 0;
#X restore 521 172 pd sine1;
#X connect 0 0 9 0;
#X connect 1 0 9 0;
#X connect 2 0 9 0;
#X connect 3 0 0 2;
#X connect 3 0 1 2;
#X connect 3 0 2 2;
#X connect 3 0 18 2;
#X connect 3 0 17 2;
#X connect 3 0 21 2;
#X connect 6 0 0 1;
#X connect 6 0 1 1;
#X connect 6 0 2 1;
#X connect 6 0 17 1;
#X connect 6 0 18 1;
#X connect 6 0 21 1;
#X connect 7 0 19 0;
#X connect 10 0 0 0;
#X connect 11 0 1 0;
#X connect 12 0 11 0;
#X connect 12 0 10 0;
#X connect 12 0 14 0;
#X connect 12 0 15 0;
#X connect 12 0 16 0;
#X connect 12 0 20 0;
#X connect 13 0 12 0;
#X connect 14 0 2 0;
#X connect 15 0 18 0;
#X connect 16 0 17 0;
#X connect 17 0 9 0;
#X connect 18 0 9 0;
#X connect 19 0 12 0;
#X connect 20 0 21 0;
#X connect 21 0 9 0;
#X restore -211 370 pd spt-osc1;
#X obj -156 634 +~;
#X obj -170 272 +;
#X obj -104 312 +;
#X obj 175 123 vsl 15 81 0 0.25 0 1 empty empty dt 2 4 0 8 -262144
-1 -1 100 1;
#X obj -169 244 * -1;
#X obj 140 123 vsl 15 61 0 1 0 1 empty empty fm 2 4 0 8 -262144 -1
-1 5400 1;
#X floatatom 140 192 4 0.25 8 0 - - -;
#N canvas 411 176 695 417 spt-osc2 0;
#N canvas 181 481 492 405 sawtooth1 0;
#X obj 69 328 outlet~;
#X obj 59 159 phasor~;
#X obj 70 292 -~ 0.5;
#X obj 227 28 inlet~;
#X obj 93 190 samphold~;
#X obj 72 242 -~;
#X obj 70 268 wrap~;
#X text 279 27 <-sync;
#X obj -64 64 switch~;
#X obj -67 14 inlet;
#X text -27 14 <-on/off;
#X text 75 31 <-freq;
#X obj 31 30 inlet~;
#X connect 1 0 4 0;
#X connect 1 0 5 0;
#X connect 2 0 0 0;
#X connect 3 0 4 1;
#X connect 4 0 5 1;
#X connect 5 0 6 0;
#X connect 6 0 2 0;
#X connect 9 0 8 0;
#X connect 12 0 1 0;
#X restore 54 171 pd sawtooth1;
#N canvas 157 360 623 456 pulse1 0;
#X obj 29 390 outlet~;
#X obj 59 159 phasor~;
#X obj 62 340 -~ 0.5;
#X obj 227 28 inlet~;
#X obj 93 190 samphold~;
#X obj 72 242 -~;
#X obj 70 268 wrap~;
#X text 279 27 <-sync;
#X obj -86 68 switch~;
#X obj -86 29 inlet;
#X text -46 29 <-on/off;
#X obj 42 32 inlet~;
#X text 84 32 <-freq;
#X obj 63 317 expr~ $v1>0.05;
#X connect 1 0 4 0;
#X connect 1 0 5 0;
#X connect 2 0 0 0;
#X connect 3 0 4 1;
#X connect 4 0 5 1;
#X connect 5 0 6 0;
#X connect 6 0 13 0;
#X connect 9 0 8 0;
#X connect 11 0 1 0;
#X connect 13 0 2 0;
#X restore 159 172 pd pulse1;
#N canvas 156 355 492 405 triangle1 0;
#X obj 73 460 outlet~;
#X obj 59 159 phasor~;
#X obj 74 424 -~ 0.5;
#X obj 227 28 inlet~;
#X obj 93 190 samphold~;
#X obj 72 242 -~;
#X obj 70 268 wrap~;
#X text 279 27 <-sync;
#X obj 95 304 *~ -1;
#X obj 96 327 +~ 1;
#X obj 67 362 min~;
#X obj 72 391 *~ 2;
#X obj -83 79 switch~;
#X obj -86 29 inlet;
#X text -46 29 <-on/off;
#X text 74 37 <-freq;
#X obj 32 37 inlet~;
#X connect 1 0 4 0;
#X connect 1 0 5 0;
#X connect 2 0 0 0;
#X connect 3 0 4 1;
#X connect 4 0 5 1;
#X connect 5 0 6 0;
#X connect 6 0 8 0;
#X connect 6 0 10 0;
#X connect 8 0 9 0;
#X connect 9 0 10 1;
#X connect 10 0 11 0;
#X connect 11 0 2 0;
#X connect 13 0 12 0;
#X connect 16 0 1 0;
#X restore 425 172 pd triangle1;
#X obj 273 28 inlet~;
#X text 320 27 <-sync;
#X obj 479 22 inlet;
#X text 522 22 <-type 0 \, 1 \, 2;
#X obj 154 279 outlet~;
#X obj 20 138 == 0;
#X obj 124 137 == 1;
#X obj 347 95 int 0;
#X obj 483 46 loadbang;
#X obj 425 145 == 4;
#X obj 319 140 == 3;
#X obj 245 137 == 2;
#N canvas 157 360 623 456 pulse2 0;
#X obj 29 390 outlet~;
#X obj 59 159 phasor~;
#X obj 62 340 -~ 0.5;
#X obj 227 28 inlet~;
#X obj 93 190 samphold~;
#X obj 72 242 -~;
#X obj 70 268 wrap~;
#X text 279 27 <-sync;
#X obj -86 68 switch~;
#X obj -86 29 inlet;
#X text -46 29 <-on/off;
#X obj 18 30 inlet~;
#X text 62 30 <-freq;
#X obj 62 311 expr~ $v1>0.15;
#X connect 1 0 4 0;
#X connect 1 0 5 0;
#X connect 2 0 0 0;
#X connect 3 0 4 1;
#X connect 4 0 5 1;
#X connect 5 0 6 0;
#X connect 6 0 13 0;
#X connect 9 0 8 0;
#X connect 11 0 1 0;
#X connect 13 0 2 0;
#X restore 252 173 pd pulse2;
#N canvas 157 360 623 456 square 0;
#X obj 29 390 outlet~;
#X obj 59 159 phasor~;
#X obj 62 340 -~ 0.5;
#X obj 227 28 inlet~;
#X obj 93 190 samphold~;
#X obj 72 242 -~;
#X obj 70 268 wrap~;
#X text 279 27 <-sync;
#X obj -86 68 switch~;
#X obj -86 29 inlet;
#X text -46 29 <-on/off;
#X obj 19 30 inlet~;
#X text 62 30 <-freq;
#X obj 61 315 expr~ $v1>0.5;
#X connect 1 0 4 0;
#X connect 1 0 5 0;
#X connect 2 0 0 0;
#X connect 3 0 4 1;
#X connect 4 0 5 1;
#X connect 5 0 6 0;
#X connect 6 0 13 0;
#X connect 9 0 8 0;
#X connect 11 0 1 0;
#X connect 13 0 2 0;
#X restore 342 172 pd square;
#X obj 385 51 clip 0 5;
#X obj 521 145 == 5;
#N canvas 156 355 492 405 sine1 0;
#X obj 28 290 outlet~;
#X obj 227 28 inlet~;
#X text 279 27 <-sync;
#X obj -83 79 switch~;
#X obj -86 29 inlet;
#X text -46 29 <-on/off;
#X text 62 30 <-freq;
#X obj 18 30 inlet~;
#X obj 19 62 phasor~;
#X obj 53 93 samphold~;
#X obj 32 145 -~;
#X obj 30 171 wrap~;
#X obj 29 230 cos~;
#X obj 29 257 *~ 0.5;
#X obj 29 202 -~ 0.5;
#X connect 1 0 9 1;
#X connect 4 0 3 0;
#X connect 7 0 8 0;
#X connect 8 0 9 0;
#X connect 8 0 10 0;
#X connect 9 0 10 1;
#X connect 10 0 11 0;
#X connect 11 0 14 0;
#X connect 12 0 13 0;
#X connect 13 0 0 0;
#X connect 14 0 12 0;
#X restore 521 172 pd sine1;
#X text 136 19 <-freq;
#X obj 88 21 inlet~;
#X connect 0 0 7 0;
#X connect 1 0 7 0;
#X connect 2 0 7 0;
#X connect 3 0 0 2;
#X connect 3 0 1 2;
#X connect 3 0 2 2;
#X connect 3 0 16 2;
#X connect 3 0 15 2;
#X connect 3 0 19 2;
#X connect 5 0 17 0;
#X connect 8 0 0 0;
#X connect 9 0 1 0;
#X connect 10 0 9 0;
#X connect 10 0 8 0;
#X connect 10 0 12 0;
#X connect 10 0 13 0;
#X connect 10 0 14 0;
#X connect 10 0 18 0;
#X connect 11 0 10 0;
#X connect 12 0 2 0;
#X connect 13 0 16 0;
#X connect 14 0 15 0;
#X connect 15 0 7 0;
#X connect 16 0 7 0;
#X connect 17 0 10 0;
#X connect 18 0 19 0;
#X connect 19 0 7 0;
#X connect 21 0 0 1;
#X connect 21 0 1 1;
#X connect 21 0 15 1;
#X connect 21 0 16 1;
#X connect 21 0 2 1;
#X connect 21 0 19 1;
#X restore -130 585 pd spt-osc2;
#X obj -152 673 *~ 0.5;
#X obj 158 123 vsl 15 61 0.15 1 0 1 empty empty md 2 4 0 8 -262144
-1 -1 600 1;
#X obj -98 347 mtof;
#X obj -195 324 *;
#X obj -195 302 mtof;
#X obj -204 346 ftom;
#X obj -132 467 +~;
#X obj -68 139 *;
#X obj -188 433 *~;
#X msg -364 527 0 30.498;
#X msg -389 469 set 0 \$1;
#X obj -314 615 *;
#X obj -304 560 line 0 1;
#X obj -320 457 t b b;
#X obj -375 371 *;
#X obj -387 427 * 10000;
#X obj -385 398 *;
#X obj -239 395 *~;
#X msg -288 503 1;
#X obj -298 645 lop~ 50;
#X obj -69 170 * 8000;
#X obj -95 389 == 0;
#X obj -202 504 *~;
#X msg 138 224 set \$1;
#X msg 132 265 1.5;
#X obj 318 245 loadbang;
#X msg -18 506 5;
#X obj -102 540 spigot;
#X obj -46 534 spigot;
#X obj -57 389 != 0;
#X text -337 21 simple double osc synth with fm \, needs moog-external
\, zexy;
#X obj 185 253 +;
#X obj 189 221 t b f;
#X obj 220 319 +;
#X obj 214 275 t b f;
#X msg 62 119 0;
#X floatatom 300 311 5 0 0 0 - - -;
#X text 39 43 trig;
#X obj -6 98 t b f;
#X obj 63 89 delay 100;
#X obj -95 500 int;
#X obj -97 472 t b;
#X obj 112 616 clip 1 20000;
#N canvas 498 140 1076 837 fexprlopass4 0;
#X obj -43 392 inlet~;
#X obj -4 634 outlet~;
#X obj 73 85 inlet~;
#X obj 345 55 inlet;
#X obj -1 581 fexpr~ $x2[0]*$x1[0] + $x3[0]*$x1[-1] + $x4[0]*$x1[-2]
- $x5[0]*$y1[-1] - $x6[0]*$y1[-2];
#X obj 87 200 sig~ 1;
#X obj 121 249 /~;
#X obj 245 49 samplerate~;
#X text 13 559 biquad \, a1 \, 2 \, 3 b1 \, 2 = x2[0] \, x3[0] \, x4[0]
\, x5[0] \, x6[0];
#X obj 296 199 * 1.41421;
#X obj 110 376 sig~ 1;
#X obj 147 408 /~;
#X obj 214 340 +~;
#X obj 187 310 sig~ 1;
#X obj 251 318 *~;
#X obj 181 375 +~;
#X obj 112 295 *~;
#X obj 145 507 *~ 2;
#X text 125 505 a2;
#X text 41 356 a1/a3;
#X obj 222 407 sig~ 1;
#X obj 296 433 -~;
#X obj 299 457 *~ 2;
#X obj 297 518 *~;
#X obj 409 334 *~;
#X text 276 435 b1;
#X text 384 379 b2;
#X obj 361 397 sig~ 1;
#X obj 392 429 -~;
#X obj 377 512 *~;
#X text 99 246 c;
#X obj 397 462 +~;
#X obj 147 222 expr~ tan($v1);
#X obj 151 194 /~ 44100;
#X obj 129 153 *~ 3.14159;
#X obj 333 138 -;
#X msg 332 107 1;
#X obj 345 86 t b f;
#X text 400 56 resonance 0..1;
#X text 124 86 cutoff (hz);
#X text 560 187 a2= 2*a1 \, a3=a1;
#X text 559 119 cookbook-like 4 pole lp;
#X text 560 151 c= 1/tan(pi*cutf/samplerate);
#X text 562 169 a1= 1/(1+res*c+c*c);
#X text 561 205 b1= 2*(1-c*c)*a1;
#X text 561 221 b2= (1-res*c+c*c)*a1;
#X connect 0 0 4 0;
#X connect 2 0 34 0;
#X connect 3 0 37 0;
#X connect 4 0 1 0;
#X connect 5 0 6 0;
#X connect 6 0 14 0;
#X connect 6 0 16 0;
#X connect 6 0 16 1;
#X connect 6 0 24 0;
#X connect 7 0 33 1;
#X connect 9 0 14 1;
#X connect 9 0 24 1;
#X connect 10 0 11 0;
#X connect 11 0 4 1;
#X connect 11 0 17 0;
#X connect 11 0 4 3;
#X connect 11 0 23 1;
#X connect 11 0 29 0;
#X connect 12 0 15 1;
#X connect 13 0 12 0;
#X connect 14 0 12 1;
#X connect 15 0 11 1;
#X connect 16 0 15 0;
#X connect 16 0 21 1;
#X connect 16 0 31 1;
#X connect 17 0 4 2;
#X connect 20 0 21 0;
#X connect 21 0 22 0;
#X connect 22 0 23 0;
#X connect 23 0 4 4;
#X connect 24 0 28 1;
#X connect 27 0 28 0;
#X connect 28 0 31 0;
#X connect 29 0 4 5;
#X connect 31 0 29 1;
#X connect 32 0 6 1;
#X connect 33 0 32 0;
#X connect 34 0 33 0;
#X connect 35 0 9 0;
#X connect 36 0 35 0;
#X connect 37 0 36 0;
#X connect 37 1 35 1;
#X restore -99 710 pd fexprlopass4;
#X obj 379 512 inlet;
#X obj 364 548 route fm md wav;
#X connect 0 0 22 0;
#X connect 0 1 16 0;
#X connect 0 1 47 1;
#X connect 0 1 55 1;
#X connect 1 0 13 0;
#X connect 2 0 1 0;
#X connect 3 0 94 0;
#X connect 4 0 32 1;
#X connect 4 0 32 0;
#X connect 5 0 47 2;
#X connect 5 0 82 0;
#X connect 5 0 84 0;
#X connect 5 0 96 1;
#X connect 6 0 7 0;
#X connect 7 0 8 0;
#X connect 8 0 9 1;
#X connect 9 0 49 0;
#X connect 9 0 50 0;
#X connect 10 0 88 0;
#X connect 11 0 23 0;
#X connect 11 0 23 1;
#X connect 12 0 99 2;
#X connect 13 0 11 0;
#X connect 13 0 11 1;
#X connect 14 0 90 0;
#X connect 15 0 19 0;
#X connect 16 0 1 0;
#X connect 16 0 65 0;
#X connect 16 1 44 0;
#X connect 16 1 74 0;
#X connect 17 0 98 0;
#X connect 18 0 27 0;
#X connect 19 0 17 0;
#X connect 20 0 21 0;
#X connect 21 0 18 1;
#X connect 22 0 20 0;
#X connect 23 0 15 0;
#X connect 24 0 9 0;
#X connect 26 0 3 0;
#X connect 28 0 15 1;
#X connect 29 0 31 0;
#X connect 30 0 28 1;
#X connect 31 0 28 0;
#X connect 31 1 30 0;
#X connect 32 0 34 1;
#X connect 32 0 34 0;
#X connect 33 0 2 0;
#X connect 33 0 92 0;
#X connect 33 0 95 1;
#X connect 34 0 33 0;
#X connect 35 0 42 0;
#X connect 36 0 40 0;
#X connect 40 0 41 0;
#X connect 41 0 89 0;
#X connect 42 0 43 0;
#X connect 43 0 87 0;
#X connect 44 0 13 0;
#X connect 44 0 20 0;
#X connect 45 0 0 0;
#X connect 45 1 46 0;
#X connect 46 0 44 0;
#X connect 47 0 73 1;
#X connect 47 0 78 0;
#X connect 48 0 56 0;
#X connect 49 0 60 0;
#X connect 50 0 58 0;
#X connect 51 0 50 1;
#X connect 51 0 52 0;
#X connect 52 0 49 1;
#X connect 53 0 63 1;
#X connect 53 0 63 0;
#X connect 53 0 77 0;
#X connect 53 0 85 0;
#X connect 53 0 82 0;
#X connect 54 0 59 1;
#X connect 54 0 79 0;
#X connect 55 0 48 1;
#X connect 56 0 99 0;
#X connect 57 0 70 1;
#X connect 57 0 70 0;
#X connect 58 0 62 1;
#X connect 59 0 61 0;
#X connect 60 0 59 0;
#X connect 61 0 47 0;
#X connect 62 0 55 0;
#X connect 63 0 76 0;
#X connect 64 0 62 0;
#X connect 65 0 68 0;
#X connect 66 0 65 0;
#X connect 67 0 75 0;
#X connect 68 0 67 0;
#X connect 68 0 67 1;
#X connect 69 0 65 0;
#X connect 69 1 74 0;
#X connect 70 0 72 1;
#X connect 70 0 72 0;
#X connect 71 0 66 0;
#X connect 72 0 71 0;
#X connect 73 0 64 0;
#X connect 74 0 68 0;
#X connect 75 0 73 0;
#X connect 76 0 64 1;
#X connect 77 0 78 1;
#X connect 77 0 84 1;
#X connect 77 0 97 0;
#X connect 78 0 48 0;
#X connect 79 0 80 0;
#X connect 80 0 54 0;
#X connect 81 0 80 0;
#X connect 82 0 83 0;
#X connect 83 0 55 2;
#X connect 84 0 55 2;
#X connect 85 0 83 1;
#X connect 87 0 19 1;
#X connect 88 0 87 0;
#X connect 88 1 87 1;
#X connect 89 0 28 0;
#X connect 90 0 89 0;
#X connect 90 1 89 1;
#X connect 91 0 45 0;
#X connect 94 0 95 0;
#X connect 94 1 45 0;
#X connect 95 0 91 0;
#X connect 96 0 84 0;
#X connect 97 0 96 0;
#X connect 98 0 99 1;
#X connect 99 0 18 0;
#X connect 100 0 101 0;
#X connect 101 0 53 0;
#X connect 101 1 57 0;
#X connect 101 2 5 0;
#X coords 0 -1 1 1 160 110 1 100 100;
