#N canvas 1080 415 1324 694 10;
#X msg 372 256 0 \$1;
#X obj 176 658 *~;
#X obj 145 338 *~;
#X obj 136 372 +~;
#X msg 420 251 1;
#X obj 257 459 *~;
#X msg 174 374 1;
#X obj 211 745 outlet~;
#X obj 372 60 inlet;
#X obj 107 138 hsl 128 8 0 127 0 1 empty empty amt 134 5 0 8 -262144
-1 -1 4700 1;
#X obj 161 301 mtof;
#X obj 107 149 hsl 128 8 0 127 0 1 empty empty p 134 3 0 8 -262144
-1 -1 900 1;
#X obj 92 352 mtof;
#X obj 107 116 hsl 128 8 1.27 800 1 1 empty empty dec 134 4 0 8 -262144
-1 -1 7600 1;
#X obj 135 408 +~;
#X obj 310 175 +;
#X msg 332 98 0;
#X text 417 58 <-trigger/level in;
#X text 392 334 quadratic pitch/amp env;
#X obj 134 436 phasor~;
#X obj 87 497 *~;
#X obj 136 596 +~;
#X obj 140 623 hip~ 5;
#X obj 146 520 -~;
#X obj 192 450 loadbang;
#X obj 162 555 *~;
#X msg 130 491 1;
#X obj 216 692 +~;
#X obj 276 494 noise~;
#X msg 590 314 0 \$1;
#X msg 654 310 1;
#X obj 107 169 hsl 128 8 1.27 800 1 1 empty empty ndc 134 4 0 8 -262144
-1 -1 0 1;
#X obj 520 240 +;
#X msg 550 156 0;
#X obj 285 579 *~;
#X obj 107 190 hsl 128 8 0 127 0 1 empty empty np 134 3 0 8 -262144
-1 -1 8500 1;
#X obj 359 480 mtof;
#X obj 286 538 lop~;
#X obj 372 232 float;
#X obj 352 179 t f b b;
#X obj 581 281 float;
#X obj 570 237 t f b b;
#X obj 379 307 line;
#X obj 356 337 *;
#X obj 333 371 lop~ 30;
#X obj 556 436 lop~ 30;
#X obj 597 363 line;
#X obj 572 394 *;
#X obj 66 -43 inlet;
#X obj 107 126 hsl 128 8 1.27 800 1 1 empty empty dc2 134 4 0 8 -262144
-1 -1 2200 1;
#X obj 107 179 hsl 128 8 1.27 800 1 1 empty empty nd2 134 4 0 8 -262144
-1 -1 3700 1;
#X obj 66 -17 / 128;
#X text 107 -43 morph 0..127;
#X obj 65 6 clip 0 1;
#X obj 238 -17 t b f;
#X msg 238 5 1;
#X obj 254 26 -;
#X obj 259 52 *;
#X obj 275 85 +;
#X obj 300 52 *;
#X obj -11 78 t b f;
#X msg -11 100 1;
#X obj 5 121 -;
#X obj 10 147 *;
#X obj 26 180 +;
#X obj 51 147 *;
#X obj -7 227 t b f;
#X msg -7 249 1;
#X obj 9 270 -;
#X obj 14 296 *;
#X obj 30 329 +;
#X obj 55 296 *;
#X obj 107 159 hsl 128 8 0 127 0 1 empty empty p2 134 3 0 8 -262144
-1 -1 6700 1;
#X obj 22 466 expr~ $v1<0.5;
#X obj 174 485 expr~ $v1>0.5;
#X connect 0 0 42 0;
#X connect 1 0 27 0;
#X connect 2 0 3 1;
#X connect 3 0 14 0;
#X connect 4 0 42 0;
#X connect 5 0 1 1;
#X connect 6 0 19 1;
#X connect 8 0 16 0;
#X connect 8 0 33 0;
#X connect 8 0 39 0;
#X connect 8 0 41 0;
#X connect 9 0 10 0;
#X connect 10 0 2 1;
#X connect 11 0 69 1;
#X connect 12 0 3 0;
#X connect 13 0 59 1;
#X connect 14 0 19 0;
#X connect 15 0 38 0;
#X connect 16 0 15 0;
#X connect 19 0 20 1;
#X connect 19 0 23 1;
#X connect 19 0 73 0;
#X connect 19 0 74 0;
#X connect 20 0 21 0;
#X connect 21 0 22 0;
#X connect 22 0 1 0;
#X connect 23 0 25 0;
#X connect 24 0 26 0;
#X connect 25 0 21 1;
#X connect 26 0 23 0;
#X connect 27 0 7 0;
#X connect 28 0 37 0;
#X connect 29 0 46 0;
#X connect 30 0 46 0;
#X connect 31 0 63 1;
#X connect 32 0 40 0;
#X connect 33 0 32 0;
#X connect 34 0 27 1;
#X connect 35 0 36 0;
#X connect 36 0 37 1;
#X connect 37 0 34 0;
#X connect 38 0 0 0;
#X connect 39 0 5 0;
#X connect 39 1 6 0;
#X connect 39 1 38 0;
#X connect 39 2 4 0;
#X connect 40 0 29 0;
#X connect 41 1 40 0;
#X connect 41 2 30 0;
#X connect 42 0 43 1;
#X connect 42 0 43 0;
#X connect 43 0 44 0;
#X connect 44 0 2 0;
#X connect 44 0 5 1;
#X connect 45 0 34 1;
#X connect 46 0 47 1;
#X connect 46 0 47 0;
#X connect 47 0 45 0;
#X connect 48 0 51 0;
#X connect 49 0 57 1;
#X connect 50 0 65 1;
#X connect 51 0 53 0;
#X connect 53 0 54 0;
#X connect 53 0 59 0;
#X connect 53 0 60 0;
#X connect 53 0 65 0;
#X connect 53 0 66 0;
#X connect 53 0 71 0;
#X connect 54 0 55 0;
#X connect 54 1 56 1;
#X connect 55 0 56 0;
#X connect 56 0 57 0;
#X connect 57 0 58 0;
#X connect 58 0 15 1;
#X connect 59 0 58 1;
#X connect 60 0 61 0;
#X connect 60 1 62 1;
#X connect 61 0 62 0;
#X connect 62 0 63 0;
#X connect 63 0 64 0;
#X connect 64 0 32 1;
#X connect 65 0 64 1;
#X connect 66 0 67 0;
#X connect 66 1 68 1;
#X connect 67 0 68 0;
#X connect 68 0 69 0;
#X connect 69 0 70 0;
#X connect 70 0 12 0;
#X connect 71 0 70 1;
#X connect 72 0 71 1;
#X connect 73 0 20 0;
#X connect 74 0 25 1;
#X coords 0 -1 1 1 160 100 1 100 100;
