#N canvas 1224 90 1095 552 10;
#X obj -96 10 inlet~;
#X obj 193 333 +~;
#X obj 235 333 +~;
#X obj -92 523 outlet~;
#X obj -21 539 outlet~;
#X obj 154 452 +~;
#X obj 263 453 +~;
#X obj 196 452 -~;
#X obj 303 452 -~;
#X obj 153 508 +~;
#X obj 197 509 +~;
#X obj 241 510 -~;
#X obj 280 510 -~;
#X obj 240 592 *~ 0;
#X obj 198 591 *~ 0;
#X obj 153 590 *~ 0;
#X obj 281 593 *~ 0;
#X obj 548 555 / 200;
#X obj 548 507 min 100;
#X obj 548 530 max 0;
#X obj 145 129 vsl 8 65 0 100 0 1 empty empty fb 0 -6 0 8 -262144 -1
-1 5000 1;
#X obj -27 31 mtof;
#X obj -42 92 mtof;
#X obj 104 130 vsl 8 64 0 127 0 1 empty empty l 0 -8 0 8 -262144 -1
-1 5800 1;
#X obj 115 130 vsl 8 64 0 127 0 1 empty empty h 0 -8 0 8 -262144 -1
-1 800 1;
#X text 83 55 reverb from the pd doc (see comments there). added filter
and predelay.;
#N canvas 0 22 821 604 predelay 0;
#X obj -139 78 inlet~;
#X obj 216 75 inlet;
#X obj 254 307 outlet~;
#X floatatom 188 135 5 0 0 0 - - -;
#X obj 188 162 pow -1;
#X obj 188 185 / 4;
#X obj 201 208 *;
#X obj 212 236 * 60000;
#X text 259 74 <- bpm in;
#X obj 163 9 loadbang;
#X text 25 274 <- unique name for delayline! ->;
#X text 261 28 beatsynced predelay;
#X obj 46 32 inlet;
#X msg 130 71 bang;
#X obj -151 274 delwrite~ \$0gbbrevpdl1 2000;
#X obj 255 277 vd~ \$0gbbrevpdl1;
#X connect 0 0 14 0;
#X connect 1 0 3 0;
#X connect 3 0 4 0;
#X connect 4 0 5 0;
#X connect 5 0 6 0;
#X connect 6 0 7 0;
#X connect 7 0 15 0;
#X connect 9 0 13 0;
#X connect 12 0 6 1;
#X connect 12 0 13 0;
#X connect 13 0 3 0;
#X connect 15 0 2 0;
#X restore -127 41 pd predelay;
#X obj 130 130 vsl 8 64 0 4 0 1 empty empty pl 0 -8 0 8 -262144 -1
-1 400 1;
#X obj 175 22 inlet;
#X text 214 21 <-bpm;
#N canvas 416 362 450 300 echo1 0;
#X obj 66 95 inlet~;
#X obj 130 96 inlet~;
#X obj 68 216 outlet~;
#X obj 141 215 outlet~;
#X obj 67 143 +~;
#X obj 140 141 -~;
#X obj 138 167 delwrite~ \$0echo1 5.43216;
#X obj 144 189 delread~ \$0echo1 5.43216;
#X connect 0 0 4 0;
#X connect 0 0 5 0;
#X connect 1 0 4 1;
#X connect 1 0 5 1;
#X connect 4 0 2 0;
#X connect 5 0 6 0;
#X connect 7 0 3 0;
#X restore -78 145 pd echo1;
#N canvas 416 362 450 300 echo2 0;
#X obj 66 95 inlet~;
#X obj 130 96 inlet~;
#X obj 68 216 outlet~;
#X obj 141 215 outlet~;
#X obj 67 143 +~;
#X obj 140 141 -~;
#X obj 139 168 delwrite~ \$0echo2 8.45346;
#X obj 140 190 delread~ \$0echo2 8.45346;
#X connect 0 0 4 0;
#X connect 0 0 5 0;
#X connect 1 0 4 1;
#X connect 1 0 5 1;
#X connect 4 0 2 0;
#X connect 5 0 6 0;
#X connect 7 0 3 0;
#X restore -78 170 pd echo2;
#N canvas 416 362 450 300 echo3 0;
#X obj 66 95 inlet~;
#X obj 130 96 inlet~;
#X obj 68 216 outlet~;
#X obj 141 215 outlet~;
#X obj 67 143 +~;
#X obj 140 141 -~;
#X obj 138 167 delwrite~ \$0echo3 13.4367;
#X obj 141 191 delread~ \$0echo3 13.4367;
#X connect 0 0 4 0;
#X connect 0 0 5 0;
#X connect 1 0 4 1;
#X connect 1 0 5 1;
#X connect 4 0 2 0;
#X connect 5 0 6 0;
#X connect 7 0 3 0;
#X restore -80 195 pd echo3;
#N canvas 416 362 450 300 echo4 0;
#X obj 66 95 inlet~;
#X obj 130 96 inlet~;
#X obj 68 216 outlet~;
#X obj 141 215 outlet~;
#X obj 67 143 +~;
#X obj 140 141 -~;
#X obj 138 170 delwrite~ \$0echo4 21.5463;
#X obj 139 191 delread~ \$0echo4 21.5463;
#X connect 0 0 4 0;
#X connect 0 0 5 0;
#X connect 1 0 4 1;
#X connect 1 0 5 1;
#X connect 4 0 2 0;
#X connect 5 0 6 0;
#X connect 7 0 3 0;
#X restore -80 220 pd echo4;
#N canvas 416 362 450 300 echo5 0;
#X obj 66 95 inlet~;
#X obj 130 96 inlet~;
#X obj 68 216 outlet~;
#X obj 141 215 outlet~;
#X obj 67 143 +~;
#X obj 140 141 -~;
#X obj 138 169 delwrite~ \$0echo5 34.3876;
#X obj 141 192 delread~ \$0echo5 34.3876;
#X connect 0 0 4 0;
#X connect 0 0 5 0;
#X connect 1 0 4 1;
#X connect 1 0 5 1;
#X connect 4 0 2 0;
#X connect 5 0 6 0;
#X connect 7 0 3 0;
#X restore -81 242 pd echo5;
#N canvas 416 362 450 300 echo6 0;
#X obj 66 95 inlet~;
#X obj 130 96 inlet~;
#X obj 68 216 outlet~;
#X obj 141 215 outlet~;
#X obj 67 143 +~;
#X obj 140 141 -~;
#X obj 139 169 delwrite~ \$0echo6 55.5437;
#X obj 139 191 delread~ \$0echo6 55.5437;
#X connect 0 0 4 0;
#X connect 0 0 5 0;
#X connect 1 0 4 1;
#X connect 1 0 5 1;
#X connect 4 0 2 0;
#X connect 5 0 6 0;
#X connect 7 0 3 0;
#X restore -81 266 pd echo6;
#X obj 213 272 delread~ \$0loop-del1 60;
#X obj 255 297 delread~ \$0loop-del2 71.9345;
#X obj 302 326 delread~ \$0loop-del3 86.7545;
#X obj 324 351 delread~ \$0loop-del4 95.945;
#X obj 280 633 delwrite~ \$0loop-del4 95.945;
#X obj 241 656 delwrite~ \$0loop-del3 86.7545;
#X obj 199 679 delwrite~ \$0loop-del2 71.9345;
#X obj 154 701 delwrite~ \$0loop-del1 60;
#X obj -87 486 +~;
#X obj -54 453 *~;
#X obj -120 444 *~;
#X obj 159 129 vsl 8 65 0 1 0 1 empty empty dw 0 -6 0 8 -262144 -1
-1 400 1;
#X obj -37 336 * -1;
#X obj -39 364 + 1;
#X obj 19 495 +~;
#X obj 52 462 *~;
#X obj -14 453 *~;
#X obj -100 71 lop~;
#X obj -86 114 hip~;
#X connect 0 0 26 0;
#X connect 0 0 46 1;
#X connect 0 0 52 1;
#X connect 1 0 5 0;
#X connect 1 0 7 0;
#X connect 1 0 45 1;
#X connect 2 0 5 1;
#X connect 2 0 7 1;
#X connect 2 0 51 1;
#X connect 5 0 9 0;
#X connect 5 0 11 0;
#X connect 6 0 11 1;
#X connect 6 0 9 1;
#X connect 7 0 10 0;
#X connect 7 0 12 0;
#X connect 8 0 10 1;
#X connect 8 0 12 1;
#X connect 9 0 15 0;
#X connect 10 0 14 0;
#X connect 11 0 13 0;
#X connect 12 0 16 0;
#X connect 13 0 41 0;
#X connect 14 0 42 0;
#X connect 15 0 43 0;
#X connect 16 0 40 0;
#X connect 17 0 16 1;
#X connect 17 0 15 1;
#X connect 17 0 14 1;
#X connect 17 0 13 1;
#X connect 18 0 19 0;
#X connect 19 0 17 0;
#X connect 20 0 18 0;
#X connect 21 0 53 1;
#X connect 22 0 54 1;
#X connect 23 0 21 0;
#X connect 24 0 22 0;
#X connect 26 0 53 0;
#X connect 27 0 26 1;
#X connect 28 0 26 2;
#X connect 30 0 31 0;
#X connect 30 1 31 1;
#X connect 31 0 32 0;
#X connect 31 1 32 1;
#X connect 32 0 33 0;
#X connect 32 1 33 1;
#X connect 33 0 34 0;
#X connect 33 1 34 1;
#X connect 34 0 35 0;
#X connect 34 1 35 1;
#X connect 35 0 1 0;
#X connect 35 1 2 0;
#X connect 36 0 1 1;
#X connect 37 0 2 1;
#X connect 38 0 6 0;
#X connect 38 0 8 0;
#X connect 39 0 6 1;
#X connect 39 0 8 1;
#X connect 44 0 3 0;
#X connect 45 0 44 1;
#X connect 46 0 44 0;
#X connect 47 0 45 0;
#X connect 47 0 48 0;
#X connect 47 0 51 0;
#X connect 48 0 49 0;
#X connect 49 0 46 0;
#X connect 49 0 52 0;
#X connect 50 0 4 0;
#X connect 51 0 50 1;
#X connect 52 0 50 0;
#X connect 53 0 54 0;
#X connect 54 0 30 0;
#X coords 0 -1 1 1 70 100 1 100 100;
