#N canvas 58 126 1258 344 10;
#X obj 51 80 inlet;
#X obj 1138 311 outlet;
#X obj 111 156 mod 12;
#X obj 111 179 == 0;
#X obj 111 225 +;
#X obj 51 110 t f f;
#X obj 111 202 *;
#X obj 198 156 mod 12;
#X obj 198 225 +;
#X obj 198 202 *;
#X obj 198 179 == 1;
#X obj 283 156 mod 12;
#X obj 283 225 +;
#X obj 283 202 *;
#X obj 283 179 == 2;
#X obj 154 161 == 0;
#X obj 243 161 == 0;
#X obj 326 161 == 0;
#X obj 366 156 mod 12;
#X obj 366 225 +;
#X obj 366 202 *;
#X obj 408 161 == 0;
#X obj 150 264 t f f;
#X obj 238 264 t f f;
#X obj 320 264 t f f;
#X obj 449 156 mod 12;
#X obj 449 225 +;
#X obj 449 202 *;
#X obj 499 161 == 0;
#X obj 410 264 t f f;
#X obj 366 179 == 3;
#X obj 449 179 == 4;
#X obj 537 156 mod 12;
#X obj 537 225 +;
#X obj 537 202 *;
#X obj 620 156 mod 12;
#X obj 620 225 +;
#X obj 620 202 *;
#X obj 581 161 == 0;
#X obj 667 161 == 0;
#X obj 705 156 mod 12;
#X obj 705 225 +;
#X obj 705 202 *;
#X obj 749 161 == 0;
#X obj 492 264 t f f;
#X obj 575 264 t f f;
#X obj 661 264 t f f;
#X obj 792 156 mod 12;
#X obj 792 225 +;
#X obj 792 202 *;
#X obj 839 161 == 0;
#X obj 751 264 t f f;
#X obj 537 179 == 5;
#X obj 620 179 == 6;
#X obj 705 179 == 7;
#X obj 792 179 == 8;
#X obj 883 156 mod 12;
#X obj 883 225 +;
#X obj 883 202 *;
#X obj 971 156 mod 12;
#X obj 971 225 +;
#X obj 971 202 *;
#X obj 930 161 == 0;
#X obj 1019 161 == 0;
#X obj 1064 156 mod 12;
#X obj 1064 225 +;
#X obj 1064 202 *;
#X obj 1112 161 == 0;
#X obj 841 264 t f f;
#X obj 930 264 t f f;
#X obj 1016 264 t f f;
#X obj 883 179 == 9;
#X obj 971 179 == 10;
#X obj 1064 179 == 11;
#X text 49 62 test value;
#X text 1133 292 value fit to scale;
#X obj 579 20 inlet;
#X obj 580 48 unpack f f f f f f f f f f f f;
#X text 578 2 control values;
#X text 143 5 scale filter increments test value up to the next allowed
value based on 0/1 input to each control value - best when used with
the scale definition object;
#X obj 590 107 tgl 15 1 empty empty empty 0 -6 0 8 -262144 -1 -1 1
1;
#X obj 611 107 tgl 15 1 empty empty empty 0 -6 0 8 -262144 -1 -1 1
1;
#X obj 632 107 tgl 15 1 empty empty empty 0 -6 0 8 -262144 -1 -1 1
1;
#X obj 653 107 tgl 15 1 empty empty empty 0 -6 0 8 -262144 -1 -1 0
1;
#X obj 674 107 tgl 15 1 empty empty empty 0 -6 0 8 -262144 -1 -1 0
1;
#X obj 695 107 tgl 15 1 empty empty empty 0 -6 0 8 -262144 -1 -1 0
1;
#X obj 716 107 tgl 15 1 empty empty empty 0 -6 0 8 -262144 -1 -1 0
1;
#X obj 600 88 tgl 15 1 empty empty empty 0 -6 0 8 -166441 -1 -1 0 1
;
#X obj 622 88 tgl 15 1 empty empty empty 0 -6 0 8 -166441 -1 -1 0 1
;
#X obj 662 88 tgl 15 1 empty empty empty 0 -6 0 8 -166441 -1 -1 0 1
;
#X obj 684 88 tgl 15 1 empty empty empty 0 -6 0 8 -166441 -1 -1 0 1
;
#X obj 706 88 tgl 15 1 empty empty empty 0 -6 0 8 -166441 -1 -1 0 1
;
#X connect 0 0 5 0;
#X connect 2 0 3 0;
#X connect 3 0 6 0;
#X connect 4 0 22 0;
#X connect 5 0 4 0;
#X connect 5 1 2 0;
#X connect 6 0 4 1;
#X connect 7 0 10 0;
#X connect 8 0 23 0;
#X connect 9 0 8 1;
#X connect 10 0 9 0;
#X connect 11 0 14 0;
#X connect 12 0 24 0;
#X connect 13 0 12 1;
#X connect 14 0 13 0;
#X connect 15 0 6 1;
#X connect 16 0 9 1;
#X connect 17 0 13 1;
#X connect 18 0 30 0;
#X connect 19 0 29 0;
#X connect 20 0 19 1;
#X connect 21 0 20 1;
#X connect 22 0 8 0;
#X connect 22 1 7 0;
#X connect 23 0 12 0;
#X connect 23 1 11 0;
#X connect 24 0 19 0;
#X connect 24 1 18 0;
#X connect 25 0 31 0;
#X connect 26 0 44 0;
#X connect 27 0 26 1;
#X connect 28 0 27 1;
#X connect 29 0 26 0;
#X connect 29 1 25 0;
#X connect 30 0 20 0;
#X connect 31 0 27 0;
#X connect 32 0 52 0;
#X connect 33 0 45 0;
#X connect 34 0 33 1;
#X connect 35 0 53 0;
#X connect 36 0 46 0;
#X connect 37 0 36 1;
#X connect 38 0 34 1;
#X connect 39 0 37 1;
#X connect 40 0 54 0;
#X connect 41 0 51 0;
#X connect 42 0 41 1;
#X connect 43 0 42 1;
#X connect 44 0 33 0;
#X connect 44 1 32 0;
#X connect 45 0 36 0;
#X connect 45 1 35 0;
#X connect 46 0 41 0;
#X connect 46 1 40 0;
#X connect 47 0 55 0;
#X connect 48 0 68 0;
#X connect 49 0 48 1;
#X connect 50 0 49 1;
#X connect 51 0 48 0;
#X connect 51 1 47 0;
#X connect 52 0 34 0;
#X connect 53 0 37 0;
#X connect 54 0 42 0;
#X connect 55 0 49 0;
#X connect 56 0 71 0;
#X connect 57 0 69 0;
#X connect 58 0 57 1;
#X connect 59 0 72 0;
#X connect 60 0 70 0;
#X connect 61 0 60 1;
#X connect 62 0 58 1;
#X connect 63 0 61 1;
#X connect 64 0 73 0;
#X connect 65 0 1 0;
#X connect 66 0 65 1;
#X connect 67 0 66 1;
#X connect 68 0 57 0;
#X connect 68 1 56 0;
#X connect 69 0 60 0;
#X connect 69 1 59 0;
#X connect 70 0 65 0;
#X connect 70 1 64 0;
#X connect 71 0 58 0;
#X connect 72 0 61 0;
#X connect 73 0 66 0;
#X connect 76 0 77 0;
#X connect 77 0 80 0;
#X connect 77 1 87 0;
#X connect 77 2 81 0;
#X connect 77 3 88 0;
#X connect 77 4 82 0;
#X connect 77 5 83 0;
#X connect 77 6 89 0;
#X connect 77 7 84 0;
#X connect 77 8 90 0;
#X connect 77 9 85 0;
#X connect 77 10 91 0;
#X connect 77 11 86 0;
#X connect 80 0 15 0;
#X connect 81 0 17 0;
#X connect 82 0 28 0;
#X connect 83 0 38 0;
#X connect 84 0 43 0;
#X connect 85 0 62 0;
#X connect 86 0 67 0;
#X connect 87 0 16 0;
#X connect 88 0 21 0;
#X connect 89 0 39 0;
#X connect 90 0 50 0;
#X connect 91 0 63 0;
#X coords 0 -1 1 1 160 60 1 580 70;
