#N canvas 1063 262 705 740 10;
#N canvas 256 70 891 572 dec2sum 0;
#X obj 104 77 pow 8;
#X obj 243 -5 inlet;
#X obj 583 25 inlet;
#X text 235 -28 number;
#X text 583 9 base;
#X obj 283 492 outlet;
#X obj 83 104 div;
#X obj 180 100 pow 7;
#X obj 271 115 pow 6;
#X obj 162 123 div;
#X obj 251 142 div;
#X obj 102 132 mod;
#X obj 172 156 mod;
#X obj 265 168 mod;
#X obj 331 173 div;
#X obj 345 199 mod;
#X obj 351 145 pow 5;
#X obj 409 193 div;
#X obj 423 219 mod;
#X obj 429 165 pow 4;
#X obj 483 221 div;
#X obj 497 247 mod;
#X obj 500 194 pow 3;
#X obj 549 247 div;
#X obj 558 273 mod;
#X obj 621 275 div;
#X obj 650 299 mod;
#X obj 561 223 pow 2;
#X obj 126 247 int;
#X obj 243 17 t f f;
#X obj 727 305 mod;
#X obj 327 425 expr $f1+$f2+$f3+$f4+$f5+$f6+$f7+$f8+$f9;
#X obj 389 462 expr $f1-$f2+$f3-$f4+$f5-$f6+$f7-$f8+$f9;
#X obj 389 495 outlet;
#X connect 0 0 6 1;
#X connect 1 0 29 0;
#X connect 2 0 0 0;
#X connect 2 0 7 0;
#X connect 2 0 8 0;
#X connect 2 0 11 1;
#X connect 2 0 12 1;
#X connect 2 0 13 1;
#X connect 2 0 15 1;
#X connect 2 0 16 0;
#X connect 2 0 19 0;
#X connect 2 0 18 1;
#X connect 2 0 22 0;
#X connect 2 0 21 1;
#X connect 2 0 27 0;
#X connect 2 0 24 1;
#X connect 2 0 25 1;
#X connect 2 0 26 1;
#X connect 2 0 30 1;
#X connect 6 0 11 0;
#X connect 7 0 9 1;
#X connect 8 0 10 1;
#X connect 9 0 12 0;
#X connect 10 0 13 0;
#X connect 11 0 28 0;
#X connect 12 0 31 1;
#X connect 12 0 32 1;
#X connect 13 0 31 2;
#X connect 13 0 32 2;
#X connect 14 0 15 0;
#X connect 15 0 31 3;
#X connect 15 0 32 3;
#X connect 16 0 14 1;
#X connect 17 0 18 0;
#X connect 18 0 31 4;
#X connect 18 0 32 4;
#X connect 19 0 17 1;
#X connect 20 0 21 0;
#X connect 21 0 31 5;
#X connect 21 0 32 5;
#X connect 22 0 20 1;
#X connect 23 0 24 0;
#X connect 24 0 31 6;
#X connect 24 0 32 6;
#X connect 25 0 26 0;
#X connect 26 0 31 7;
#X connect 26 0 32 7;
#X connect 27 0 23 1;
#X connect 28 0 31 0;
#X connect 28 0 32 0;
#X connect 29 0 6 0;
#X connect 29 1 9 0;
#X connect 29 1 10 0;
#X connect 29 1 14 0;
#X connect 29 1 17 0;
#X connect 29 1 20 0;
#X connect 29 1 23 0;
#X connect 29 1 25 0;
#X connect 29 1 30 0;
#X connect 30 0 31 8;
#X connect 30 0 32 8;
#X connect 31 0 5 0;
#X connect 32 0 33 0;
#X restore 50 267 pd dec2sum;
#X floatatom 139 172 3 2 16 0 base - -;
#X obj 34 11 inlet;
#X obj 58 142 div;
#X obj 85 551 outlet;
#X obj 223 570 outlet;
#X floatatom 139 118 3 1 32 0 c/div - -;
#X obj 63 169 *;
#X obj 54 216 +;
#X floatatom 139 138 6 1 16384 0 step - -;
#X floatatom 139 154 8 1 2.09715e+06 0 start - -;
#X obj 54 241 change;
#X floatatom 201 116 3 -96 96 0 tp - -;
#X obj 156 312 +;
#X obj 78 394 moses;
#X obj 78 339 t f f;
#X obj 59 439 spigot;
#X obj 110 439 spigot;
#X obj 142 205 tgl 10 1 empty empty rise 0 -6 0 8 -262144 -1 -1 1 1
;
#X obj 173 205 tgl 10 1 empty empty fall 0 -6 0 8 -262144 -1 -1 0 1
;
#X obj 110 367 +;
#X obj 203 205 tgl 10 1 empty empty fltsm 0 -6 0 8 -262144 -1 -1 1
1;
#X obj 427 -89 loadbang;
#X msg 122 45 2;
#X msg 69 44 set \$1;
#X msg 217 58 647;
#X msg 164 57 set \$1;
#X msg 277 30 77300;
#X msg 224 29 set \$1;
#X msg 336 59 77300;
#X msg 285 58 set \$1;
#X text 106 196 filt;
#X msg 376 93 11;
#X msg 323 92 set \$1;
#X msg 377 135 46;
#X msg 324 134 set \$1;
#X obj 199 227 == 0;
#X obj 235 298 abs;
#X obj 235 320 mod 16;
#X obj 235 343 + 1;
#X obj 246 373 / 16;
#X obj 204 171 bng 15 50 20 0 empty empty empty 0 -6 0 8 -262144 -1
-1;
#X msg 231 466 set \$1;
#X msg 226 505 0.694444;
#X obj 231 442 *;
#X obj 228 116 vsl 8 64 0.5 4 0 1 empty empty g 0 -8 0 8 -262144 -1
-1 3100 1;
#X obj 100 481 t f b;
#X floatatom 201 134 3 12 128 0 rg - -;
#X msg 425 190 66;
#X msg 373 163 set \$1;
#X obj 70 295 mod;
#X obj 222 534 clip 0 1;
#X text 287 227 count (in decimal) from start-value in stepd of given
size. convert the number to another base and add the digits of the
result. (slightly different sum for note level);
#X obj 572 53 inlet;
#X connect 0 0 50 0;
#X connect 0 1 37 0;
#X connect 1 0 0 1;
#X connect 1 0 33 0;
#X connect 2 0 3 0;
#X connect 3 0 7 0;
#X connect 6 0 3 1;
#X connect 6 0 24 0;
#X connect 7 0 8 0;
#X connect 8 0 11 0;
#X connect 9 0 7 1;
#X connect 9 0 26 0;
#X connect 10 0 8 1;
#X connect 10 0 28 0;
#X connect 10 0 30 0;
#X connect 11 0 0 0;
#X connect 12 0 13 1;
#X connect 12 0 35 0;
#X connect 13 0 15 0;
#X connect 14 0 16 0;
#X connect 14 1 17 0;
#X connect 15 0 20 0;
#X connect 15 1 14 0;
#X connect 16 0 46 0;
#X connect 17 0 46 0;
#X connect 18 0 17 1;
#X connect 19 0 16 1;
#X connect 20 0 14 1;
#X connect 21 0 36 0;
#X connect 22 0 23 0;
#X connect 22 0 25 0;
#X connect 22 0 27 0;
#X connect 22 0 29 0;
#X connect 22 0 32 0;
#X connect 22 0 34 0;
#X connect 22 0 48 0;
#X connect 23 0 6 0;
#X connect 24 0 23 0;
#X connect 25 0 9 0;
#X connect 26 0 25 0;
#X connect 27 0 10 0;
#X connect 28 0 27 0;
#X connect 29 0 10 0;
#X connect 30 0 29 0;
#X connect 32 0 1 0;
#X connect 33 0 32 0;
#X connect 34 0 12 0;
#X connect 35 0 34 0;
#X connect 36 0 20 1;
#X connect 37 0 38 0;
#X connect 38 0 39 0;
#X connect 39 0 40 0;
#X connect 40 0 44 0;
#X connect 42 0 43 0;
#X connect 43 0 51 0;
#X connect 44 0 42 0;
#X connect 45 0 44 1;
#X connect 46 0 4 0;
#X connect 46 1 41 0;
#X connect 46 1 43 0;
#X connect 47 0 49 0;
#X connect 47 0 50 1;
#X connect 48 0 47 0;
#X connect 49 0 48 0;
#X connect 50 0 13 0;
#X connect 51 0 5 0;
#X coords 0 -1 1 1 140 120 1 100 100;
