#N canvas 1229 130 935 848 10;
#X obj 300 425 + 1;
#X obj 249 421 float;
#X obj 272 506 mod 2;
#X obj 210 556 delay 0;
#X obj 260 535 *;
#X msg 205 312 1;
#X obj 217 337 /;
#X obj 208 289 t f f;
#X obj 379 363 t b f;
#X obj 245 390 metro 125;
#X obj 220 500 *;
#X obj 281 473 t b f f;
#X obj 136 147 hsl 80 8 0 0.4 0 1 empty empty swing -35 4 0 8 -262144
-1 -1 500 1;
#X msg 380 337 -2;
#X text 183 455 counter/swing;
#X obj 261 606 int;
#X obj 174 59 loadbang;
#X floatatom 129 130 3 30 300 0 - - -;
#X msg 172 189 set \$1;
#X msg 142 223 115;
#X text 102 127 bpm;
#X obj 183 132 bng 12 250 50 0 empty empty sync -25 7 0 8 -262144 -1
-1;
#X obj 263 643 outlet;
#X text 314 644 pos->;
#X obj 227 360 * 7500;
#X obj 277 116 outlet;
#X text 163 383 comment;
#X connect 0 0 1 1;
#X connect 0 0 11 0;
#X connect 1 0 0 0;
#X connect 2 0 4 0;
#X connect 3 0 15 0;
#X connect 4 0 3 1;
#X connect 5 0 6 0;
#X connect 6 0 24 0;
#X connect 7 0 5 0;
#X connect 7 1 6 1;
#X connect 8 0 9 0;
#X connect 8 1 1 0;
#X connect 9 0 1 0;
#X connect 10 0 4 1;
#X connect 11 0 3 0;
#X connect 11 1 2 0;
#X connect 11 2 15 1;
#X connect 12 0 10 0;
#X connect 13 0 8 0;
#X connect 15 0 22 0;
#X connect 16 0 19 0;
#X connect 16 0 21 0;
#X connect 17 0 18 0;
#X connect 17 0 7 0;
#X connect 17 0 25 0;
#X connect 18 0 19 0;
#X connect 19 0 17 0;
#X connect 21 0 13 0;
#X connect 24 0 9 1;
#X connect 24 0 10 1;
#X coords 0 -1 1 1 120 60 1 100 100;
