#N canvas 72 208 1206 688 10;
#X obj 51 245 dac~;
#X text 123 17 nanopad-x;
#X text 195 17 nanopad-y;
#X obj 127 33 ctlin 81;
#X obj 196 33 ctlin 82;
#X obj 264 32 ctlin 83;
#X text 262 16 nanopad-on;
#X obj 348 18 loadbang;
#X obj 378 178 playlist all 800 410 {Helvetica 10 bold} white yellow
black red;
#X msg 353 48 location /home/mnb/samplelib;
#X msg 389 92 location /home/mnb/wave_wrk;
#X msg 408 138 location ..;
#X msg 375 71 location /home/mnb/archiv/sounds;
#X msg 292 302 open \$1;
#X obj 269 276 t b a;
#X msg 255 300 1;
#X msg 401 113 location /home/mnb/sound_recordings;
#X obj 268 332 readsf~ 2;
#N canvas 163 247 989 769 xy_fx 0;
#X obj 16 88 inlet~;
#X obj 118 673 outlet~;
#X obj -97 93 inlet~;
#X obj -39 685 outlet~;
#X obj 180 182 / 128;
#N canvas 267 214 774 561 drywet 0;
#X obj 174 270 inlet~;
#X obj 118 481 outlet~;
#X obj 212 409 *~;
#X obj 123 403 *~;
#X obj 117 357 * -1;
#X obj 117 381 + 1;
#X obj 217 477 outlet~;
#X obj 259 263 clip 0 1;
#X obj 261 228 inlet;
#X connect 0 0 3 1;
#X connect 0 0 2 0;
#X connect 2 0 6 0;
#X connect 3 0 1 0;
#X connect 4 0 5 0;
#X connect 5 0 3 0;
#X connect 7 0 4 0;
#X connect 7 0 2 1;
#X connect 8 0 7 0;
#X restore -92 334 pd drywet;
#N canvas 271 216 774 561 drywet 0;
#X obj 174 270 inlet~;
#X obj 118 481 outlet~;
#X obj 212 409 *~;
#X obj 123 403 *~;
#X obj 117 357 * -1;
#X obj 117 381 + 1;
#X obj 217 477 outlet~;
#X obj 259 263 clip 0 1;
#X obj 273 221 inlet;
#X connect 0 0 3 1;
#X connect 0 0 2 0;
#X connect 2 0 6 0;
#X connect 3 0 1 0;
#X connect 4 0 5 0;
#X connect 5 0 3 0;
#X connect 7 0 4 0;
#X connect 7 0 2 1;
#X connect 8 0 7 0;
#X restore 24 334 pd drywet;
#X obj 240 14 inlet;
#X obj 306 14 inlet;
#X obj 113 116 hsl 80 10 0 127 0 1 empty empty x -10 3 0 10 -262144
-1 -1 4914 1;
#X obj 113 130 hsl 80 10 0 127 0 1 empty empty y -10 3 0 10 -262144
-1 -1 4790 1;
#X obj 183 143 tgl 12 1 empty empty empty 17 7 0 10 -4034 -1 -1 0 1
;
#X obj 183 235 > 0;
#X obj 113 158 hsl 80 10 0 1 0 1 empty empty e -11 5 0 10 -262144 -1
-1 1700 1;
#X obj 236 245 *;
#X obj 236 267 * 2000;
#X obj 191 299 pack f f;
#X obj 423 30 inlet;
#X obj 190 324 line;
#X obj 32 259 *;
#X obj 73 188 t b f;
#X obj 199 406 change;
#X obj 305 259 == 0;
#X obj 193 355 *;
#X obj 200 384 +;
#X obj 313 336 t b f;
#X text 277 18 xy;
#X text 427 15 on;
#X obj -9 364 / 128;
#X obj 35 373 / 128;
#X obj 197 120 vsl 10 45 0 128 0 1 empty empty w 2 6 0 10 -262144 -1
-1 2600 1;
#X obj -25 458 abs_multixyfx1;
#X obj 500 35 inlet;
#X text 505 16 d/w;
#X obj 110 142 nbx 4 14 -99 99 0 1 empty empty empty -7 7 0 10 -262144
-1 -1 0 256;
#X obj 110 144 cnv 11 45 11 empty empty empty 20 12 0 14 -262144 -66577
0;
#X symbolatom 110 142 8 0 0 0 - - -, f 8;
#X obj 403 101 t a;
#X obj 498 379 mod;
#X msg 484 417 set \$1;
#X connect 0 0 6 0;
#X connect 2 0 5 0;
#X connect 4 0 19 0;
#X connect 5 0 3 0;
#X connect 5 1 31 0;
#X connect 6 0 1 0;
#X connect 6 1 31 1;
#X connect 7 0 9 0;
#X connect 8 0 10 0;
#X connect 9 0 28 0;
#X connect 10 0 29 0;
#X connect 11 0 22 0;
#X connect 11 0 25 0;
#X connect 12 0 16 0;
#X connect 13 0 14 1;
#X connect 13 0 14 0;
#X connect 14 0 15 0;
#X connect 15 0 16 1;
#X connect 16 0 18 0;
#X connect 17 0 12 0;
#X connect 18 0 23 0;
#X connect 19 0 5 1;
#X connect 19 0 6 1;
#X connect 20 0 19 0;
#X connect 20 1 19 1;
#X connect 21 0 20 0;
#X connect 22 0 23 1;
#X connect 23 0 24 0;
#X connect 24 0 21 0;
#X connect 25 0 24 0;
#X connect 25 1 24 1;
#X connect 28 0 31 2;
#X connect 29 0 31 3;
#X connect 30 0 4 0;
#X connect 31 0 3 0;
#X connect 31 1 1 0;
#X connect 31 2 37 0;
#X connect 31 3 38 1;
#X connect 32 0 30 0;
#X connect 34 0 38 0;
#X connect 37 0 36 0;
#X connect 38 0 39 0;
#X connect 38 0 31 4;
#X connect 39 0 34 0;
#X coords 0 -1 1 1 110 70 1 100 100;
#X restore 64 92 pd xy_fx;
#X connect 3 0 18 2;
#X connect 4 0 18 3;
#X connect 5 0 18 4;
#X connect 7 0 9 0;
#X connect 8 0 14 0;
#X connect 9 0 8 0;
#X connect 10 0 8 0;
#X connect 11 0 8 0;
#X connect 12 0 8 0;
#X connect 13 0 17 0;
#X connect 14 0 15 0;
#X connect 14 1 13 0;
#X connect 15 0 17 0;
#X connect 16 0 8 0;
#X connect 17 0 18 0;
#X connect 17 1 18 1;
#X connect 18 0 0 0;
#X connect 18 1 0 1;
