#N canvas 1136 234 1282 1017 10;
#X obj 304 62 swing-counter;
#X obj 264 172 ss-number-generator;
#X obj 264 309 scale-filter;
#X obj 259 380 dbl-osc;
#X obj 694 948 dac~;
#X obj 258 499 beat-delay melody;
#X obj 598 680 reverb;
#X obj 595 791 dbl-delay mel-delay;
#X obj 478 177 ss-number-generator;
#X obj 480 306 scale-filter;
#X obj 480 376 dbl-osc;
#X obj 670 177 ss-number-generator;
#X obj 672 306 scale-filter;
#X obj 672 500 beat-delay drums;
#X obj 672 376 drum-osc;
#X obj 480 500 beat-delay bass;
#X connect 0 0 1 0;
#X connect 0 0 8 0;
#X connect 0 0 11 0;
#X connect 0 1 6 1;
#X connect 0 1 5 1;
#X connect 0 1 7 2;
#X connect 0 1 7 3;
#X connect 0 1 15 1;
#X connect 1 0 2 0;
#X connect 1 1 3 1;
#X connect 2 0 3 0;
#X connect 3 0 5 0;
#X connect 5 0 6 0;
#X connect 6 0 7 0;
#X connect 6 1 7 1;
#X connect 7 0 4 0;
#X connect 7 1 4 1;
#X connect 8 0 9 0;
#X connect 8 1 10 1;
#X connect 9 0 10 0;
#X connect 10 0 15 0;
#X connect 11 0 12 0;
#X connect 11 1 14 1;
#X connect 12 0 14 0;
#X connect 13 0 6 0;
#X connect 14 0 13 0;
#X connect 15 0 6 0;
